<svg xmlns="http://www.w3.org/2000/svg" xmlns:xlink="http://www.w3.org/1999/xlink" viewBox="0 0 110.438 32">
  <defs>
    <style>
      .cls-1 {
        fill: #f5f5f5;
      }

      .cls-2 {
        fill: #0db551;
      }

      .cls-3 {
        opacity: 0.501;
        fill: url(#linear-gradient);
      }

      .cls-4 {
        fill: url(#linear-gradient-2);
      }
    </style>
    <linearGradient id="linear-gradient" x1="0.631" y1="0.346" x2="0.326" y2="0.727" gradientUnits="objectBoundingBox">
      <stop offset="0" stop-color="#043819" stop-opacity="0"/>
      <stop offset="1" stop-color="#043819"/>
    </linearGradient>
    <linearGradient id="linear-gradient-2" x1="0.153" y1="0.551" x2="0.705" y2="0.044" xlink:href="#linear-gradient"/>
  </defs>
  <g id="Logo_Light" data-name="Logo Light" transform="translate(-48 -44)">
    <path id="logotype" class="cls-1" d="M76.066,8.8H70.617a.094.094,0,0,0-.094.094V27.874a2.36,2.36,0,0,1-.553,1.78,2.023,2.023,0,0,1-1.443.519,7.067,7.067,0,0,1-1.079-.094.094.094,0,0,0-.108.088v4.255a.094.094,0,0,0,.081.094q.553.1,1.052.155a13.077,13.077,0,0,0,1.349.054,6.649,6.649,0,0,0,4.761-1.538q1.612-1.538,1.612-4.835V8.891a.094.094,0,0,0-.128-.094ZM96.217,11.7A8.767,8.767,0,0,0,93.2,9.316a9.671,9.671,0,0,0-4.3-.89,9.441,9.441,0,0,0-7.081,3.068,10.17,10.17,0,0,0-2.023,3.3,11.107,11.107,0,0,0-.722,4v.074a10.79,10.79,0,0,0,.776,4.168,9.765,9.765,0,0,0,2.165,3.244,9.556,9.556,0,0,0,3.3,2.077,11.316,11.316,0,0,0,4.134.742,10.574,10.574,0,0,0,4.721-.985,9.988,9.988,0,0,0,3.372-2.65.094.094,0,0,0,0-.135l-3.1-2.738a.094.094,0,0,0-.121,0A8.47,8.47,0,0,1,92.063,24.1a6.272,6.272,0,0,1-2.522.479,5.044,5.044,0,0,1-3.17-.985,4.721,4.721,0,0,1-1.726-2.907H98.462q.034-.4.054-.776a5.61,5.61,0,0,0,0-.674,14.256,14.256,0,0,0-.573-4.046A9.947,9.947,0,0,0,96.217,11.7ZM84.6,17.165a5.766,5.766,0,0,1,1.389-3.075,3.783,3.783,0,0,1,2.873-1.146,3.7,3.7,0,0,1,2.853,1.167,5.489,5.489,0,0,1,1.349,3.055ZM113.285,8.4a5.631,5.631,0,0,0-3.911,1.113,8.261,8.261,0,0,0-2.333,3.257V8.891a.094.094,0,0,0-.094-.094H101.5a.094.094,0,0,0-.094.094V28.562a.094.094,0,0,0,.094.094h5.442a.094.094,0,0,0,.094-.094V21.319q0-3.594,1.612-5.3a5.8,5.8,0,0,1,4.424-1.706h.3V8.52a.094.094,0,0,0-.088-.1Zm18.566,5.119a6.676,6.676,0,0,0-1.632-2.7,7.081,7.081,0,0,0-2.7-1.645,12.179,12.179,0,0,0-3.986-.573,17.952,17.952,0,0,0-4.3.445,22.147,22.147,0,0,0-3.365,1.1.094.094,0,0,0-.054.115l1.349,4.12a.094.094,0,0,0,.121.061,19.212,19.212,0,0,1,2.522-.762,13.231,13.231,0,0,1,2.873-.276,4.761,4.761,0,0,1,3.183.924,3.372,3.372,0,0,1,1.072,2.7v.33a16.636,16.636,0,0,0-2.205-.593,13.872,13.872,0,0,0-2.65-.223,12.611,12.611,0,0,0-3.244.391,7.418,7.418,0,0,0-2.5,1.167,5.4,5.4,0,0,0-1.645,1.962,6.224,6.224,0,0,0-.593,2.812v.088a6.016,6.016,0,0,0,.539,2.61,5.584,5.584,0,0,0,1.463,1.908,6.217,6.217,0,0,0,2.165,1.167,8.807,8.807,0,0,0,2.65.391,8.167,8.167,0,0,0,3.513-.681,7.823,7.823,0,0,0,2.482-1.834v2.023a.094.094,0,0,0,.094.094h5.26a.094.094,0,0,0,.094-.094V17.132a11.761,11.761,0,0,0-.513-3.615Zm-4.815,8.133a3.075,3.075,0,0,1-1.207,2.522,4.977,4.977,0,0,1-3.2.964,3.642,3.642,0,0,1-2.225-.627,2.077,2.077,0,0,1-.85-1.78v-.074a2.313,2.313,0,0,1,1.039-2.023,5.024,5.024,0,0,1,2.853-.674,8.9,8.9,0,0,1,1.942.2,8.639,8.639,0,0,1,1.645.539Z" transform="translate(26.073 41.273)"/>
    <path id="shape" class="cls-2" d="M14.593,11.539h0a1.767,1.767,0,0,0,.04-1.693h0L8.955,0,.236,15.093h0a1.767,1.767,0,0,0,0,1.767h0L8.423,31.021h0a1.774,1.774,0,0,0,1.551.917H21.256L12.031,15.983ZM36.1,15.059h0L27.926.9A1.78,1.78,0,0,0,26.381,0H15.106l9.225,15.983L21.8,20.38l-.061.108a1.767,1.767,0,0,0,0,1.639l.061.108,5.611,9.731s8.706-15.106,8.72-15.106a1.78,1.78,0,0,0,0-1.807Z" transform="translate(48.001 44)"/>
    <path id="shadow" class="cls-3" d="M11.808,0,8.76,5.274l6.123,10.709,2.569-4.444h0a1.767,1.767,0,0,0,.04-1.693h0Z" transform="translate(45.148 44)"/>
    <path id="shadow-2" data-name="shadow" class="cls-4" d="M37.8,39.683l3.048-5.274L34.728,23.7l-2.563,4.444h0a1.767,1.767,0,0,0-.04,1.693h0Z" transform="translate(37.604 36.283)"/>
  </g>
</svg>
