<svg width="25" height="25" viewBox="0 0 25 25" fill="none" xmlns="http://www.w3.org/2000/svg">
<path d="M17.0686 4.82374C14.4521 4.82374 12.2911 3.12535 9.00137 3.12535C7.78286 3.12535 6.69136 3.33941 5.67886 3.71192C5.81918 3.34545 5.8789 2.95305 5.85396 2.56143C5.76743 1.17296 4.6292 0.0592357 3.23916 0.00269276C1.677 -0.0608815 0.390625 1.18668 0.390625 2.73472C0.390625 3.66373 0.854346 4.48399 1.5625 4.97813V23.8285C1.5625 24.4757 2.08716 25.0003 2.73438 25.0003H3.51562C4.16284 25.0003 4.6875 24.4757 4.6875 23.8285V19.2191C6.06987 18.63 7.79209 18.1389 10.2751 18.1389C12.8917 18.1389 15.0527 19.8373 18.3424 19.8373C20.6944 19.8373 22.5742 19.0417 24.3241 17.8423C24.748 17.5517 25 17.0692 25 16.5553V4.68516C25 3.54293 23.815 2.78721 22.7791 3.26837C21.1024 4.04708 19.0459 4.82374 17.0686 4.82374Z" fill="#9747FF"/>
</svg>
