<svg width="25" height="25" viewBox="0 0 25 25" fill="none" xmlns="http://www.w3.org/2000/svg">
<path d="M12.5 12.5C16.4453 12.5 19.6429 9.70215 19.6429 6.25C19.6429 2.79785 16.4453 0 12.5 0C8.55469 0 5.35714 2.79785 5.35714 6.25C5.35714 9.70215 8.55469 12.5 12.5 12.5ZM17.5 14.0625H16.5681C15.3292 14.5605 13.9509 14.8438 12.5 14.8438C11.0491 14.8438 9.67634 14.5605 8.43192 14.0625H7.5C3.35937 14.0625 0 17.002 0 20.625V22.6562C0 23.9502 1.19978 25 2.67857 25H22.3214C23.8002 25 25 23.9502 25 22.6562V20.625C25 17.002 21.6406 14.0625 17.5 14.0625Z" fill="#699BF7"/>
</svg>
