<svg width="25" height="25" viewBox="0 0 25 25" fill="none" xmlns="http://www.w3.org/2000/svg">
<path d="M22.6562 25H2.34375C1.04932 25 0 23.8008 0 22.3214V2.67857C0 1.19922 1.04932 0 2.34375 0H22.6562C23.9507 0 25 1.19922 25 2.67857V22.3214C25 23.8008 23.9507 25 22.6562 25ZM6.25 4.91071C5.17134 4.91071 4.29688 5.9101 4.29688 7.14286C4.29688 8.37561 5.17134 9.375 6.25 9.375C7.32866 9.375 8.20312 8.37561 8.20312 7.14286C8.20312 5.9101 7.32866 4.91071 6.25 4.91071ZM6.25 10.2679C5.17134 10.2679 4.29688 11.2672 4.29688 12.5C4.29688 13.7328 5.17134 14.7321 6.25 14.7321C7.32866 14.7321 8.20312 13.7328 8.20312 12.5C8.20312 11.2672 7.32866 10.2679 6.25 10.2679ZM6.25 15.625C5.17134 15.625 4.29688 16.6244 4.29688 17.8571C4.29688 19.0899 5.17134 20.0893 6.25 20.0893C7.32866 20.0893 8.20312 19.0899 8.20312 17.8571C8.20312 16.6244 7.32866 15.625 6.25 15.625ZM20.3125 8.03571V6.25C20.3125 5.88019 20.0501 5.58036 19.7266 5.58036H9.96094C9.63735 5.58036 9.375 5.88019 9.375 6.25V8.03571C9.375 8.40552 9.63735 8.70536 9.96094 8.70536H19.7266C20.0501 8.70536 20.3125 8.40552 20.3125 8.03571ZM20.3125 13.3929V11.6071C20.3125 11.2373 20.0501 10.9375 19.7266 10.9375H9.96094C9.63735 10.9375 9.375 11.2373 9.375 11.6071V13.3929C9.375 13.7627 9.63735 14.0625 9.96094 14.0625H19.7266C20.0501 14.0625 20.3125 13.7627 20.3125 13.3929ZM20.3125 18.75V16.9643C20.3125 16.5945 20.0501 16.2946 19.7266 16.2946H9.96094C9.63735 16.2946 9.375 16.5945 9.375 16.9643V18.75C9.375 19.1198 9.63735 19.4196 9.96094 19.4196H19.7266C20.0501 19.4196 20.3125 19.1198 20.3125 18.75Z" fill="#4ECB71"/>
</svg>
