<svg width="22" height="24" viewBox="0 0 22 24" fill="none" xmlns="http://www.w3.org/2000/svg">
<path d="M4.014 19H21.5V2.66668C21.5 1.37984 20.4535 0.333344 19.1667 0.333344H4C2.593 0.333344 0.5 1.26551 0.5 3.83334V20.1667C0.5 22.7345 2.593 23.6667 4 23.6667H21.5V21.3333H4.014C3.475 21.3193 2.83333 21.107 2.83333 20.1667C2.83333 20.0488 2.84383 19.9438 2.86133 19.8482C2.992 19.1762 3.54267 19.0117 4.014 19ZM7.08933 6.91568C7.57494 6.43625 8.22986 6.16743 8.91225 6.16743C9.59464 6.16743 10.2496 6.43625 10.7352 6.91568L10.9965 7.17118L11.2567 6.91568C11.7425 6.43618 12.3976 6.16733 13.0802 6.16733C13.7627 6.16733 14.4179 6.43618 14.9037 6.91568C15.1446 7.14743 15.3363 7.42545 15.4673 7.73308C15.5982 8.0407 15.6657 8.37159 15.6657 8.70593C15.6657 9.04026 15.5982 9.37116 15.4673 9.67878C15.3363 9.9864 15.1446 10.2644 14.9037 10.4962L10.9977 14.3333L7.0905 10.4962C6.8493 10.2646 6.65737 9.98666 6.52623 9.67906C6.39508 9.37147 6.32743 9.04056 6.32732 8.70618C6.32721 8.37179 6.39465 8.04084 6.52559 7.73316C6.65654 7.42548 6.84829 7.14743 7.08933 6.91568Z" fill="#E4A951"/>
</svg>
