<?xml version="1.0" standalone="no"?>
<!DOCTYPE svg PUBLIC "-//W3C//DTD SVG 20010904//EN"
 "http://www.w3.org/TR/2001/REC-SVG-20010904/DTD/svg10.dtd">
<svg version="1.0" xmlns="http://www.w3.org/2000/svg"
 width="200.000000pt" height="200.000000pt" viewBox="0 0 200.000000 200.000000"
 preserveAspectRatio="xMidYMid meet">

<g transform="translate(0.000000,200.000000) scale(0.100000,-0.100000)"
fill="#000000" stroke="none">
<path d="M60 1573 l1 -368 463 -565 c255 -311 469 -565 476 -565 7 0 221 254
476 565 l463 565 1 368 0 367 -940 0 -940 0 0 -367z m1867 -3 l2 -355 -459
-560 c-253 -308 -465 -560 -470 -560 -5 0 -217 252 -470 560 l-459 560 -1 351
c0 193 3 354 7 357 3 4 421 6 927 5 l921 -3 2 -355z"/>
<path d="M160 1585 l0 -245 840 0 840 0 0 245 0 245 -840 0 -840 0 0 -245z
m400 135 l0 -30 -110 0 -110 0 0 -30 0 -30 94 0 c120 0 126 -5 126 -105 0
-102 -7 -107 -171 -103 l-124 3 -3 33 -3 32 95 0 c115 0 126 4 126 41 l0 29
-88 0 c-120 0 -132 9 -132 99 0 39 5 72 12 79 8 8 56 12 150 12 l138 0 0 -30z
m374 8 c21 -29 21 -137 2 -164 -12 -16 -29 -20 -110 -22 l-96 -4 0 -59 0 -59
-40 0 -40 0 0 165 0 165 134 0 c128 0 136 -1 150 -22z m406 -8 l0 -30 -110 0
-110 0 0 -35 0 -34 83 -3 82 -3 0 -35 0 -35 -82 -3 -83 -3 0 -59 0 -60 -35 0
-35 0 0 165 0 165 145 0 145 0 0 -30z m384 14 c9 -9 16 -32 16 -55 0 -39 0
-39 -40 -39 -36 0 -40 2 -40 25 0 26 -1 26 -72 23 l-73 -3 -3 -92 -3 -93 76 0
c74 0 75 0 75 26 0 23 3 25 38 22 36 -3 37 -4 40 -45 2 -32 -2 -47 -17 -62
-19 -19 -33 -21 -132 -21 -61 0 -119 5 -130 10 -17 10 -19 23 -19 153 0 98 4
147 12 155 8 8 53 12 134 12 98 0 126 -3 138 -16z"/>
<path d="M730 1645 l0 -35 69 0 c59 0 71 3 76 19 13 40 -3 51 -76 51 l-69 0 0
-35z"/>
<path d="M177 1237 c13 -22 664 -817 669 -817 2 0 4 187 4 415 l0 415 -340 0
c-281 0 -340 -2 -333 -13z"/>
<path d="M1140 830 c0 -231 2 -420 4 -420 4 0 644 780 674 822 13 17 -1 18
-332 18 l-346 0 0 -420z"/>
</g>
</svg>
